# xmcd CD database file
#
# Track frame offsets:
#	150
#	33033
#	72428
#	109376
#	150778
#	178997
#	222267
#	248668
#
# Disc length: 3760 seconds
#
# Revision: 0
# Processed by: cddbd v1.5.2PL0 Copyright (c) Steve Scherf et al.
# Submitted via: CDex 1.51
#
DISCID=660eae08
DTITLE=Mara Kolibri - Quärfekt
DYEAR=2015
DGENRE=Jazz
TTITLE0=PEACEFUL AWAKENING
TTITLE1=HOODED EYES
TTITLE2=PEARLS (TO FLO&CHRIS)
TTITLE3=LYRICISM
TTITLE4=SLOW MOTIONAL LIGHTNING
TTITLE5=TRANSINDIA
TTITLE6=JUST WALKIN'
TTITLE7=YOU ARETHE ONE I SEE (á YOAN)
EXTD=YEAR: 2015
EXTT0=
EXTT1=
EXTT2=
EXTT3=
EXTT4=
EXTT5=
EXTT6=
EXTT7=
PLAYORDER=
